<svg width="403" height="375" viewBox="0 0 403 375" xmlns="http://www.w3.org/2000/svg" lang="en" xml:lang="en"><rect x="2" y="2" stroke-width="4" rx="6" width="399" height="371" stroke="rgba(84,174,255,0.4)" fill="#ffffff"/><g font-weight="600" font-size="110pt" font-family="Verdana,Geneva,DejaVu Sans,sans-serif" text-rendering="geometricPrecision"><text x="545" y="301" lengthAdjust="spacingAndGlyphs" textLength="2178" transform="scale(0.123)" fill="#0969da">Wixarder's GitHub Activity</text><svg x="15" y="15" width="25" height="25" viewBox="0 0 16 16"><path fill="#000000" fill-rule="evenodd" d="M8 0C3.58 0 0 3.58 0 8c0 3.54 2.29 6.53 5.47 7.59.4.07.55-.17.55-.38 0-.19-.01-.82-.01-1.49-2.01.37-2.53-.49-2.69-.94-.09-.23-.48-.94-.82-1.13-.28-.15-.68-.52-.01-.53.63-.01 1.08.58 1.23.82.72 1.21 1.87.87 2.33.66.07-.52.28-.87.51-1.07-1.78-.2-3.64-.89-3.64-3.95 0-.87.31-1.59.82-2.15-.08-.2-.36-1.02.08-2.12 0 0 .67-.21 2.2.82.64-.18 1.32-.27 2-.27.68 0 1.36.09 2 .27 1.53-1.04 2.2-.82 2.2-.82.44 1.1.16 1.92.08 2.12.51.56.82 1.27.82 2.15 0 3.07-1.87 3.75-3.65 3.95.29.25.54.73.54 1.48 0 1.07-.01 1.93-.01 2.2 0 .21.15.46.55.38A8.013 8.013 0 0016 8c0-4.42-3.58-8-8-8z"/></svg><svg x="363" y="15" width="25" height="25" viewBox="0 0 16 16"><path fill="#000000" fill-rule="evenodd" d="M8 0C3.58 0 0 3.58 0 8c0 3.54 2.29 6.53 5.47 7.59.4.07.55-.17.55-.38 0-.19-.01-.82-.01-1.49-2.01.37-2.53-.49-2.69-.94-.09-.23-.48-.94-.82-1.13-.28-.15-.68-.52-.01-.53.63-.01 1.08.58 1.23.82.72 1.21 1.87.87 2.33.66.07-.52.28-.87.51-1.07-1.78-.2-3.64-.89-3.64-3.95 0-.87.31-1.59.82-2.15-.08-.2-.36-1.02.08-2.12 0 0 .67-.21 2.2.82.64-.18 1.32-.27 2-.27.68 0 1.36.09 2 .27 1.53-1.04 2.2-.82 2.2-.82.44 1.1.16 1.92.08 2.12.51.56.82 1.27.82 2.15 0 3.07-1.87 3.75-3.65 3.95.29.25.54.73.54 1.48 0 1.07-.01 1.93-.01 2.2 0 .21.15.46.55.38A8.013 8.013 0 0016 8c0-4.42-3.58-8-8-8z"/></svg><g transform="translate(0, 60)" fill="#24292f"><g transform="translate(15, 0)"><g transform="scale(0.095)"><text x="0" y="132" textLength="1851" lengthAdjust="spacingAndGlyphs">General Stats and Info</text></g></g><g transform="translate(15, 21)"><path fill="#0969da" fill-rule="evenodd" d="M13.25 0a.75.75 0 01.75.75V2h1.25a.75.75 0 010 1.5H14v1.25a.75.75 0 01-1.5 0V3.5h-1.25a.75.75 0 010-1.5h1.25V.75a.75.75 0 01.75-.75zM5.5 4a2 2 0 100 4 2 2 0 000-4zm2.4 4.548a3.5 3.5 0 10-4.799 0 5.527 5.527 0 00-3.1 4.66.75.75 0 101.498.085A4.01 4.01 0 015.5 9.5a4.01 4.01 0 014.001 3.793.75.75 0 101.498-.086 5.527 5.527 0 00-3.1-4.659z"/><g transform="scale(0.095)"><text lengthAdjust="spacingAndGlyphs" textLength="932" x="263" y="132">Year Joined</text><text lengthAdjust="spacingAndGlyphs" textLength="420" x="2116" y="132">2022</text></g></g><g transform="translate(15, 42)"><path fill="#0969da" fill-rule="evenodd" d="M8 .25a.75.75 0 01.673.418l1.882 3.815 4.21.612a.75.75 0 01.416 1.279l-3.046 2.97.719 4.192a.75.75 0 01-1.088.791L8 12.347l-3.766 1.98a.75.75 0 01-1.088-.79l.72-4.194L.818 6.374a.75.75 0 01.416-1.28l4.21-.611L7.327.668A.75.75 0 018 .25zm0 2.445L6.615 5.5a.75.75 0 01-.564.41l-3.097.45 2.24 2.184a.75.75 0 01.216.664l-.528 3.084 2.769-1.456a.75.75 0 01.698 0l2.77 1.456-.53-3.084a.75.75 0 01.216-.664l2.24-2.183-3.096-.45a.75.75 0 01-.564-.41L8 2.694v.001z"/><g transform="scale(0.095)"><text lengthAdjust="spacingAndGlyphs" textLength="1532" x="263" y="132">Most Starred Repo</text><text lengthAdjust="spacingAndGlyphs" textLength="752" x="2116" y="132">Wixarder</text></g></g><g transform="translate(15, 63)"><path fill="#0969da" fill-rule="evenodd" d="M5 3.25a.75.75 0 11-1.5 0 .75.75 0 011.5 0zm0 2.122a2.25 2.25 0 10-1.5 0v.878A2.25 2.25 0 005.75 8.5h1.5v2.128a2.251 2.251 0 101.5 0V8.5h1.5a2.25 2.25 0 002.25-2.25v-.878a2.25 2.25 0 10-1.5 0v.878a.75.75 0 01-.75.75h-4.5A.75.75 0 015 6.25v-.878zm3.75 7.378a.75.75 0 11-1.5 0 .75.75 0 011.5 0zm3-8.75a.75.75 0 100-1.5.75.75 0 000 1.5z"/><g transform="scale(0.095)"><text lengthAdjust="spacingAndGlyphs" textLength="1485" x="263" y="132">Most Forked Repo</text><text lengthAdjust="spacingAndGlyphs" textLength="752" x="2116" y="132">Wixarder</text></g></g><g transform="translate(15, 84)"><path fill="#0969da" fill-rule="evenodd" d="M5.5 3.5a2 2 0 100 4 2 2 0 000-4zM2 5.5a3.5 3.5 0 115.898 2.549 5.507 5.507 0 013.034 4.084.75.75 0 11-1.482.235 4.001 4.001 0 00-7.9 0 .75.75 0 01-1.482-.236A5.507 5.507 0 013.102 8.05 3.49 3.49 0 012 5.5zM11 4a.75.75 0 100 1.5 1.5 1.5 0 01.666 2.844.75.75 0 00-.416.672v.352a.75.75 0 00.574.73c1.2.289 2.162 1.2 2.522 2.372a.75.75 0 101.434-.44 5.01 5.01 0 00-2.56-3.012A3 3 0 0011 4z"/><g transform="scale(0.095)"><text lengthAdjust="spacingAndGlyphs" textLength="778" x="263" y="132">Followers</text><text lengthAdjust="spacingAndGlyphs" textLength="105" x="2116" y="132">1</text></g></g><g transform="translate(15, 105)"><path fill="#0969da" fill-rule="evenodd" d="M5.5 3.5a2 2 0 100 4 2 2 0 000-4zM2 5.5a3.5 3.5 0 115.898 2.549 5.507 5.507 0 013.034 4.084.75.75 0 11-1.482.235 4.001 4.001 0 00-7.9 0 .75.75 0 01-1.482-.236A5.507 5.507 0 013.102 8.05 3.49 3.49 0 012 5.5zM11 4a.75.75 0 100 1.5 1.5 1.5 0 01.666 2.844.75.75 0 00-.416.672v.352a.75.75 0 00.574.73c1.2.289 2.162 1.2 2.522 2.372a.75.75 0 101.434-.44 5.01 5.01 0 00-2.56-3.012A3 3 0 0011 4z"/><g transform="scale(0.095)"><text lengthAdjust="spacingAndGlyphs" textLength="780" x="263" y="132">Following</text><text lengthAdjust="spacingAndGlyphs" textLength="105" x="2116" y="132">2</text></g></g></g><g transform="translate(0, 207)" fill="#24292f"><g transform="translate(15, 0)"><g transform="scale(0.095)"><text x="0" y="132" textLength="1020" lengthAdjust="spacingAndGlyphs">Repositories</text><text x="2116" y="132" textLength="832" lengthAdjust="spacingAndGlyphs">Non-Forks</text><text x="3168" y="132" textLength="206" lengthAdjust="spacingAndGlyphs">All</text></g></g><g transform="translate(15, 21)"><path fill="#0969da" fill-rule="evenodd" d="M2 2.5A2.5 2.5 0 014.5 0h8.75a.75.75 0 01.75.75v12.5a.75.75 0 01-.75.75h-2.5a.75.75 0 110-1.5h1.75v-2h-8a1 1 0 00-.714 1.7.75.75 0 01-1.072 1.05A2.495 2.495 0 012 11.5v-9zm10.5-1V9h-8c-.356 0-.694.074-1 .208V2.5a1 1 0 011-1h8zM5 12.25v3.25a.25.25 0 00.4.2l1.45-1.087a.25.25 0 01.3 0L8.6 15.7a.25.25 0 00.4-.2v-3.25a.25.25 0 00-.25-.25h-3.5a.25.25 0 00-.25.25z"/><g transform="scale(0.095)"><text lengthAdjust="spacingAndGlyphs" textLength="1312" x="263" y="132">My Repositories</text><text lengthAdjust="spacingAndGlyphs" textLength="105" x="2116" y="132">1</text><text lengthAdjust="spacingAndGlyphs" textLength="105" x="3168" y="132">1</text></g></g><g transform="translate(15, 42)"><path fill="#0969da" fill-rule="evenodd" d="M8 .25a.75.75 0 01.673.418l1.882 3.815 4.21.612a.75.75 0 01.416 1.279l-3.046 2.97.719 4.192a.75.75 0 01-1.088.791L8 12.347l-3.766 1.98a.75.75 0 01-1.088-.79l.72-4.194L.818 6.374a.75.75 0 01.416-1.28l4.21-.611L7.327.668A.75.75 0 018 .25zm0 2.445L6.615 5.5a.75.75 0 01-.564.41l-3.097.45 2.24 2.184a.75.75 0 01.216.664l-.528 3.084 2.769-1.456a.75.75 0 01.698 0l2.77 1.456-.53-3.084a.75.75 0 01.216-.664l2.24-2.183-3.096-.45a.75.75 0 01-.564-.41L8 2.694v.001z"/><g transform="scale(0.095)"><text lengthAdjust="spacingAndGlyphs" textLength="874" x="263" y="132">Starred By</text><text lengthAdjust="spacingAndGlyphs" textLength="105" x="2116" y="132">1</text><text lengthAdjust="spacingAndGlyphs" textLength="105" x="3168" y="132">1</text></g></g></g><g transform="translate(0, 291)" fill="#24292f"><g transform="translate(15, 0)"><g transform="scale(0.095)"><text x="0" y="132" textLength="1112" lengthAdjust="spacingAndGlyphs">Contributions</text><text x="2116" y="132" textLength="774" lengthAdjust="spacingAndGlyphs">Past Year</text><text x="3168" y="132" textLength="414" lengthAdjust="spacingAndGlyphs">Total</text></g></g><g transform="translate(15, 21)"><path fill="#0969da" fill-rule="evenodd" d="M10.5 7.75a2.5 2.5 0 11-5 0 2.5 2.5 0 015 0zm1.43.75a4.002 4.002 0 01-7.86 0H.75a.75.75 0 110-1.5h3.32a4.001 4.001 0 017.86 0h3.32a.75.75 0 110 1.5h-3.32z"/><g transform="scale(0.095)"><text lengthAdjust="spacingAndGlyphs" textLength="734" x="263" y="132">Commits</text><text lengthAdjust="spacingAndGlyphs" textLength="210" x="2116" y="132">16</text><text lengthAdjust="spacingAndGlyphs" textLength="210" x="3168" y="132">16</text></g></g><g transform="translate(15, 42)"><path fill="#0969da" fill-rule="evenodd" d="M1 2.5A2.5 2.5 0 013.5 0h8.75a.75.75 0 01.75.75v3.5a.75.75 0 01-1.5 0V1.5h-8a1 1 0 00-1 1v6.708A2.492 2.492 0 013.5 9h3.25a.75.75 0 010 1.5H3.5a1 1 0 100 2h5.75a.75.75 0 010 1.5H3.5A2.5 2.5 0 011 11.5v-9zm13.23 7.79a.75.75 0 001.06-1.06l-2.505-2.505a.75.75 0 00-1.06 0L9.22 9.229a.75.75 0 001.06 1.061l1.225-1.224v6.184a.75.75 0 001.5 0V9.066l1.224 1.224z"/><g transform="scale(0.095)"><text lengthAdjust="spacingAndGlyphs" textLength="1234" x="263" y="132">Contributed To</text><text lengthAdjust="spacingAndGlyphs" textLength="105" x="2116" y="132">1</text></g></g></g></g></svg>