<svg xmlns="http://www.w3.org/2000/svg" width="820" height="238" viewBox="0 0 820 238" role="img">
<style>:root{--bg:#0d1117;--bar:#161b22;--card:#12181f;--line:#21262d;--track:#1c2128;--fg:#e6edf3;--dim:#8b949e;--mute:#6e7681;--title:#b6bcc4;--js:#f1e05a;--sh:#89e051;--l0:#161b22;--l1:#0e4429;--l2:#006d32;--l3:#26a641;--l4:#39d353}@media (prefers-color-scheme: light){:root{--bg:#ffffff;--bar:#f0f3f6;--card:#f6f8fa;--line:#d1d9e0;--track:#eaeef2;--fg:#1f2328;--dim:#59636e;--mute:#818b98;--title:#424a53;--js:#8a6d00;--sh:#3f6212;--l0:#ebedf0;--l1:#9be9a8;--l2:#40c463;--l3:#30a14e;--l4:#216e39}}text{font-family:ui-monospace, SFMono-Regular, "SF Mono", Menlo, Consolas, "Liberation Mono", monospace}.title{font-family:-apple-system, BlinkMacSystemFont, "Segoe UI", "Helvetica Neue", Arial, sans-serif;font-size:13px;font-weight:600;fill:var(--title)}</style>
<defs><style>text{font-size:11px;fill:var(--mute)}.cmdline{font-size:19px}.d0{fill:var(--l0)}.d1{fill:var(--l1)}.d2{fill:var(--l2)}.d3{fill:var(--l3)}.d4{fill:var(--l4)}@media (prefers-reduced-motion: no-preference){.reveal{animation:sweep 1.6s ease-out backwards}@keyframes sweep{from{width:0}}}</style><clipPath id="wipe"><rect class="reveal" x="40" y="0" height="238" width="740"/></clipPath></defs>
<rect x=".5" y=".5" width="819" height="237" rx="12" fill="var(--bg)" stroke="var(--line)"/>
<path d="M.5 12.5A12 12 0 0 1 12.5 .5H807.5A12 12 0 0 1 819.5 12.5V40.5H.5Z" fill="var(--bar)"/>
<path d="M.5 40.5H819.5" stroke="var(--line)"/>
<circle cx="24" cy="20.5" r="6" fill="#ff5f57"/><circle cx="46" cy="20.5" r="6" fill="#febc2e"/><circle cx="68" cy="20.5" r="6" fill="#28c840"/>
<text class="title" x="410" y="25.5" text-anchor="middle">dimiqhz@github: ~</text>
<text class="cmdline" x="28" y="72" xml:space="preserve"><tspan fill="var(--mute)">~</tspan><tspan fill="#4f6bff"> $ </tspan><tspan fill="var(--fg)">git log --graph</tspan></text>
<g clip-path="url(#wipe)"><rect class="d0" x="40" y="96" width="12" height="12" rx="3"/><rect class="d0" x="40" y="110" width="12" height="12" rx="3"/><rect class="d0" x="40" y="124" width="12" height="12" rx="3"/><rect class="d0" x="54" y="96" width="12" height="12" rx="3"/><rect class="d0" x="54" y="110" width="12" height="12" rx="3"/><rect class="d0" x="54" y="124" width="12" height="12" rx="3"/><rect class="d0" x="54" y="138" width="12" height="12" rx="3"/><rect class="d0" x="54" y="152" width="12" height="12" rx="3"/><rect class="d0" x="54" y="166" width="12" height="12" rx="3"/><rect class="d0" x="54" y="180" width="12" height="12" rx="3"/><rect class="d0" x="68" y="96" width="12" height="12" rx="3"/><rect class="d0" x="68" y="110" width="12" height="12" rx="3"/><rect class="d0" x="68" y="124" width="12" height="12" rx="3"/><rect class="d0" x="68" y="138" width="12" height="12" rx="3"/><rect class="d0" x="68" y="152" width="12" height="12" rx="3"/><rect class="d0" x="68" y="166" width="12" height="12" rx="3"/><rect class="d0" x="68" y="180" width="12" height="12" rx="3"/><rect class="d0" x="82" y="96" width="12" height="12" rx="3"/><rect class="d0" x="82" y="110" width="12" height="12" rx="3"/><rect class="d0" x="82" y="124" width="12" height="12" rx="3"/><rect class="d0" x="82" y="138" width="12" height="12" rx="3"/><rect class="d0" x="82" y="152" width="12" height="12" rx="3"/><rect class="d0" x="82" y="166" width="12" height="12" rx="3"/><rect class="d0" x="82" y="180" width="12" height="12" rx="3"/><rect class="d0" x="96" y="96" width="12" height="12" rx="3"/><rect class="d0" x="96" y="110" width="12" height="12" rx="3"/><rect class="d0" x="96" y="124" width="12" height="12" rx="3"/><rect class="d0" x="96" y="138" width="12" height="12" rx="3"/><rect class="d0" x="96" y="152" width="12" height="12" rx="3"/><rect class="d0" x="96" y="166" width="12" height="12" rx="3"/><rect class="d0" x="96" y="180" width="12" height="12" rx="3"/><rect class="d0" x="110" y="96" width="12" height="12" rx="3"/><rect class="d0" x="110" y="110" width="12" height="12" rx="3"/><rect class="d0" x="110" y="124" width="12" height="12" rx="3"/><rect class="d0" x="110" y="138" width="12" height="12" rx="3"/><rect class="d0" x="110" y="152" width="12" height="12" rx="3"/><rect class="d0" x="110" y="166" width="12" height="12" rx="3"/><rect class="d0" x="110" y="180" width="12" height="12" rx="3"/><rect class="d0" x="124" y="96" width="12" height="12" rx="3"/><rect class="d0" x="124" y="110" width="12" height="12" rx="3"/><rect class="d0" x="124" y="124" width="12" height="12" rx="3"/><rect class="d0" x="124" y="138" width="12" height="12" rx="3"/><rect class="d0" x="124" y="152" width="12" height="12" rx="3"/><rect class="d1" x="124" y="166" width="12" height="12" rx="3"/><rect class="d0" x="124" y="180" width="12" height="12" rx="3"/><rect class="d1" x="138" y="96" width="12" height="12" rx="3"/><rect class="d0" x="138" y="110" width="12" height="12" rx="3"/><rect class="d1" x="138" y="124" width="12" height="12" rx="3"/><rect class="d0" x="138" y="138" width="12" height="12" rx="3"/><rect class="d0" x="138" y="152" width="12" height="12" rx="3"/><rect class="d0" x="138" y="166" width="12" height="12" rx="3"/><rect class="d0" x="138" y="180" width="12" height="12" rx="3"/><rect class="d0" x="152" y="96" width="12" height="12" rx="3"/><rect class="d0" x="152" y="110" width="12" height="12" rx="3"/><rect class="d0" x="152" y="124" width="12" height="12" rx="3"/><rect class="d0" x="152" y="138" width="12" height="12" rx="3"/><rect class="d0" x="152" y="152" width="12" height="12" rx="3"/><rect class="d0" x="152" y="166" width="12" height="12" rx="3"/><rect class="d0" x="152" y="180" width="12" height="12" rx="3"/><rect class="d0" x="166" y="96" width="12" height="12" rx="3"/><rect class="d0" x="166" y="110" width="12" height="12" rx="3"/><rect class="d0" x="166" y="124" width="12" height="12" rx="3"/><rect class="d0" x="166" y="138" width="12" height="12" rx="3"/><rect class="d1" x="166" y="152" width="12" height="12" rx="3"/><rect class="d0" x="166" y="166" width="12" height="12" rx="3"/><rect class="d0" x="166" y="180" width="12" height="12" rx="3"/><rect class="d1" x="180" y="96" width="12" height="12" rx="3"/><rect class="d0" x="180" y="110" width="12" height="12" rx="3"/><rect class="d0" x="180" y="124" width="12" height="12" rx="3"/><rect class="d0" x="180" y="138" width="12" height="12" rx="3"/><rect class="d0" x="180" y="152" width="12" height="12" rx="3"/><rect class="d0" x="180" y="166" width="12" height="12" rx="3"/><rect class="d0" x="180" y="180" width="12" height="12" rx="3"/><rect class="d0" x="194" y="96" width="12" height="12" rx="3"/><rect class="d1" x="194" y="110" width="12" height="12" rx="3"/><rect class="d0" x="194" y="124" width="12" height="12" rx="3"/><rect class="d0" x="194" y="138" width="12" height="12" rx="3"/><rect class="d0" x="194" y="152" width="12" height="12" rx="3"/><rect class="d0" x="194" y="166" width="12" height="12" rx="3"/><rect class="d0" x="194" y="180" width="12" height="12" rx="3"/><rect class="d0" x="208" y="96" width="12" height="12" rx="3"/><rect class="d0" x="208" y="110" width="12" height="12" rx="3"/><rect class="d1" x="208" y="124" width="12" height="12" rx="3"/><rect class="d0" x="208" y="138" width="12" height="12" rx="3"/><rect class="d0" x="208" y="152" width="12" height="12" rx="3"/><rect class="d1" x="208" y="166" width="12" height="12" rx="3"/><rect class="d0" x="208" y="180" width="12" height="12" rx="3"/><rect class="d0" x="222" y="96" width="12" height="12" rx="3"/><rect class="d0" x="222" y="110" width="12" height="12" rx="3"/><rect class="d0" x="222" y="124" width="12" height="12" rx="3"/><rect class="d0" x="222" y="138" width="12" height="12" rx="3"/><rect class="d1" x="222" y="152" width="12" height="12" rx="3"/><rect class="d0" x="222" y="166" width="12" height="12" rx="3"/><rect class="d0" x="222" y="180" width="12" height="12" rx="3"/><rect class="d1" x="236" y="96" width="12" height="12" rx="3"/><rect class="d0" x="236" y="110" width="12" height="12" rx="3"/><rect class="d0" x="236" y="124" width="12" height="12" rx="3"/><rect class="d0" x="236" y="138" width="12" height="12" rx="3"/><rect class="d0" x="236" y="152" width="12" height="12" rx="3"/><rect class="d0" x="236" y="166" width="12" height="12" rx="3"/><rect class="d0" x="236" y="180" width="12" height="12" rx="3"/><rect class="d0" x="250" y="96" width="12" height="12" rx="3"/><rect class="d0" x="250" y="110" width="12" height="12" rx="3"/><rect class="d0" x="250" y="124" width="12" height="12" rx="3"/><rect class="d0" x="250" y="138" width="12" height="12" rx="3"/><rect class="d0" x="250" y="152" width="12" height="12" rx="3"/><rect class="d0" x="250" y="166" width="12" height="12" rx="3"/><rect class="d0" x="250" y="180" width="12" height="12" rx="3"/><rect class="d0" x="264" y="96" width="12" height="12" rx="3"/><rect class="d0" x="264" y="110" width="12" height="12" rx="3"/><rect class="d0" x="264" y="124" width="12" height="12" rx="3"/><rect class="d0" x="264" y="138" width="12" height="12" rx="3"/><rect class="d0" x="264" y="152" width="12" height="12" rx="3"/><rect class="d0" x="264" y="166" width="12" height="12" rx="3"/><rect class="d0" x="264" y="180" width="12" height="12" rx="3"/><rect class="d0" x="278" y="96" width="12" height="12" rx="3"/><rect class="d0" x="278" y="110" width="12" height="12" rx="3"/><rect class="d0" x="278" y="124" width="12" height="12" rx="3"/><rect class="d0" x="278" y="138" width="12" height="12" rx="3"/><rect class="d0" x="278" y="152" width="12" height="12" rx="3"/><rect class="d0" x="278" y="166" width="12" height="12" rx="3"/><rect class="d0" x="278" y="180" width="12" height="12" rx="3"/><rect class="d0" x="292" y="96" width="12" height="12" rx="3"/><rect class="d0" x="292" y="110" width="12" height="12" rx="3"/><rect class="d0" x="292" y="124" width="12" height="12" rx="3"/><rect class="d0" x="292" y="138" width="12" height="12" rx="3"/><rect class="d0" x="292" y="152" width="12" height="12" rx="3"/><rect class="d0" x="292" y="166" width="12" height="12" rx="3"/><rect class="d0" x="292" y="180" width="12" height="12" rx="3"/><rect class="d0" x="306" y="96" width="12" height="12" rx="3"/><rect class="d0" x="306" y="110" width="12" height="12" rx="3"/><rect class="d0" x="306" y="124" width="12" height="12" rx="3"/><rect class="d0" x="306" y="138" width="12" height="12" rx="3"/><rect class="d0" x="306" y="152" width="12" height="12" rx="3"/><rect class="d0" x="306" y="166" width="12" height="12" rx="3"/><rect class="d0" x="306" y="180" width="12" height="12" rx="3"/><rect class="d0" x="320" y="96" width="12" height="12" rx="3"/><rect class="d1" x="320" y="110" width="12" height="12" rx="3"/><rect class="d1" x="320" y="124" width="12" height="12" rx="3"/><rect class="d0" x="320" y="138" width="12" height="12" rx="3"/><rect class="d0" x="320" y="152" width="12" height="12" rx="3"/><rect class="d0" x="320" y="166" width="12" height="12" rx="3"/><rect class="d0" x="320" y="180" width="12" height="12" rx="3"/><rect class="d0" x="334" y="96" width="12" height="12" rx="3"/><rect class="d0" x="334" y="110" width="12" height="12" rx="3"/><rect class="d0" x="334" y="124" width="12" height="12" rx="3"/><rect class="d0" x="334" y="138" width="12" height="12" rx="3"/><rect class="d0" x="334" y="152" width="12" height="12" rx="3"/><rect class="d0" x="334" y="166" width="12" height="12" rx="3"/><rect class="d0" x="334" y="180" width="12" height="12" rx="3"/><rect class="d0" x="348" y="96" width="12" height="12" rx="3"/><rect class="d0" x="348" y="110" width="12" height="12" rx="3"/><rect class="d0" x="348" y="124" width="12" height="12" rx="3"/><rect class="d1" x="348" y="138" width="12" height="12" rx="3"/><rect class="d0" x="348" y="152" width="12" height="12" rx="3"/><rect class="d0" x="348" y="166" width="12" height="12" rx="3"/><rect class="d0" x="348" y="180" width="12" height="12" rx="3"/><rect class="d0" x="362" y="96" width="12" height="12" rx="3"/><rect class="d0" x="362" y="110" width="12" height="12" rx="3"/><rect class="d0" x="362" y="124" width="12" height="12" rx="3"/><rect class="d0" x="362" y="138" width="12" height="12" rx="3"/><rect class="d0" x="362" y="152" width="12" height="12" rx="3"/><rect class="d0" x="362" y="166" width="12" height="12" rx="3"/><rect class="d0" x="362" y="180" width="12" height="12" rx="3"/><rect class="d0" x="376" y="96" width="12" height="12" rx="3"/><rect class="d0" x="376" y="110" width="12" height="12" rx="3"/><rect class="d0" x="376" y="124" width="12" height="12" rx="3"/><rect class="d0" x="376" y="138" width="12" height="12" rx="3"/><rect class="d0" x="376" y="152" width="12" height="12" rx="3"/><rect class="d0" x="376" y="166" width="12" height="12" rx="3"/><rect class="d0" x="376" y="180" width="12" height="12" rx="3"/><rect class="d0" x="390" y="96" width="12" height="12" rx="3"/><rect class="d0" x="390" y="110" width="12" height="12" rx="3"/><rect class="d0" x="390" y="124" width="12" height="12" rx="3"/><rect class="d0" x="390" y="138" width="12" height="12" rx="3"/><rect class="d0" x="390" y="152" width="12" height="12" rx="3"/><rect class="d0" x="390" y="166" width="12" height="12" rx="3"/><rect class="d0" x="390" y="180" width="12" height="12" rx="3"/><rect class="d0" x="404" y="96" width="12" height="12" rx="3"/><rect class="d0" x="404" y="110" width="12" height="12" rx="3"/><rect class="d0" x="404" y="124" width="12" height="12" rx="3"/><rect class="d0" x="404" y="138" width="12" height="12" rx="3"/><rect class="d0" x="404" y="152" width="12" height="12" rx="3"/><rect class="d0" x="404" y="166" width="12" height="12" rx="3"/><rect class="d0" x="404" y="180" width="12" height="12" rx="3"/><rect class="d0" x="418" y="96" width="12" height="12" rx="3"/><rect class="d0" x="418" y="110" width="12" height="12" rx="3"/><rect class="d0" x="418" y="124" width="12" height="12" rx="3"/><rect class="d0" x="418" y="138" width="12" height="12" rx="3"/><rect class="d0" x="418" y="152" width="12" height="12" rx="3"/><rect class="d0" x="418" y="166" width="12" height="12" rx="3"/><rect class="d0" x="418" y="180" width="12" height="12" rx="3"/><rect class="d0" x="432" y="96" width="12" height="12" rx="3"/><rect class="d0" x="432" y="110" width="12" height="12" rx="3"/><rect class="d0" x="432" y="124" width="12" height="12" rx="3"/><rect class="d0" x="432" y="138" width="12" height="12" rx="3"/><rect class="d0" x="432" y="152" width="12" height="12" rx="3"/><rect class="d0" x="432" y="166" width="12" height="12" rx="3"/><rect class="d0" x="432" y="180" width="12" height="12" rx="3"/><rect class="d0" x="446" y="96" width="12" height="12" rx="3"/><rect class="d0" x="446" y="110" width="12" height="12" rx="3"/><rect class="d0" x="446" y="124" width="12" height="12" rx="3"/><rect class="d0" x="446" y="138" width="12" height="12" rx="3"/><rect class="d0" x="446" y="152" width="12" height="12" rx="3"/><rect class="d0" x="446" y="166" width="12" height="12" rx="3"/><rect class="d0" x="446" y="180" width="12" height="12" rx="3"/><rect class="d0" x="460" y="96" width="12" height="12" rx="3"/><rect class="d0" x="460" y="110" width="12" height="12" rx="3"/><rect class="d0" x="460" y="124" width="12" height="12" rx="3"/><rect class="d0" x="460" y="138" width="12" height="12" rx="3"/><rect class="d0" x="460" y="152" width="12" height="12" rx="3"/><rect class="d0" x="460" y="166" width="12" height="12" rx="3"/><rect class="d0" x="460" y="180" width="12" height="12" rx="3"/><rect class="d0" x="474" y="96" width="12" height="12" rx="3"/><rect class="d0" x="474" y="110" width="12" height="12" rx="3"/><rect class="d0" x="474" y="124" width="12" height="12" rx="3"/><rect class="d0" x="474" y="138" width="12" height="12" rx="3"/><rect class="d0" x="474" y="152" width="12" height="12" rx="3"/><rect class="d0" x="474" y="166" width="12" height="12" rx="3"/><rect class="d0" x="474" y="180" width="12" height="12" rx="3"/><rect class="d0" x="488" y="96" width="12" height="12" rx="3"/><rect class="d0" x="488" y="110" width="12" height="12" rx="3"/><rect class="d0" x="488" y="124" width="12" height="12" rx="3"/><rect class="d0" x="488" y="138" width="12" height="12" rx="3"/><rect class="d0" x="488" y="152" width="12" height="12" rx="3"/><rect class="d0" x="488" y="166" width="12" height="12" rx="3"/><rect class="d0" x="488" y="180" width="12" height="12" rx="3"/><rect class="d0" x="502" y="96" width="12" height="12" rx="3"/><rect class="d0" x="502" y="110" width="12" height="12" rx="3"/><rect class="d0" x="502" y="124" width="12" height="12" rx="3"/><rect class="d0" x="502" y="138" width="12" height="12" rx="3"/><rect class="d0" x="502" y="152" width="12" height="12" rx="3"/><rect class="d0" x="502" y="166" width="12" height="12" rx="3"/><rect class="d0" x="502" y="180" width="12" height="12" rx="3"/><rect class="d0" x="516" y="96" width="12" height="12" rx="3"/><rect class="d0" x="516" y="110" width="12" height="12" rx="3"/><rect class="d0" x="516" y="124" width="12" height="12" rx="3"/><rect class="d0" x="516" y="138" width="12" height="12" rx="3"/><rect class="d0" x="516" y="152" width="12" height="12" rx="3"/><rect class="d0" x="516" y="166" width="12" height="12" rx="3"/><rect class="d0" x="516" y="180" width="12" height="12" rx="3"/><rect class="d0" x="530" y="96" width="12" height="12" rx="3"/><rect class="d1" x="530" y="110" width="12" height="12" rx="3"/><rect class="d1" x="530" y="124" width="12" height="12" rx="3"/><rect class="d1" x="530" y="138" width="12" height="12" rx="3"/><rect class="d1" x="530" y="152" width="12" height="12" rx="3"/><rect class="d1" x="530" y="166" width="12" height="12" rx="3"/><rect class="d1" x="530" y="180" width="12" height="12" rx="3"/><rect class="d1" x="544" y="96" width="12" height="12" rx="3"/><rect class="d1" x="544" y="110" width="12" height="12" rx="3"/><rect class="d1" x="544" y="124" width="12" height="12" rx="3"/><rect class="d1" x="544" y="138" width="12" height="12" rx="3"/><rect class="d1" x="544" y="152" width="12" height="12" rx="3"/><rect class="d1" x="544" y="166" width="12" height="12" rx="3"/><rect class="d1" x="544" y="180" width="12" height="12" rx="3"/><rect class="d1" x="558" y="96" width="12" height="12" rx="3"/><rect class="d1" x="558" y="110" width="12" height="12" rx="3"/><rect class="d1" x="558" y="124" width="12" height="12" rx="3"/><rect class="d1" x="558" y="138" width="12" height="12" rx="3"/><rect class="d1" x="558" y="152" width="12" height="12" rx="3"/><rect class="d1" x="558" y="166" width="12" height="12" rx="3"/><rect class="d1" x="558" y="180" width="12" height="12" rx="3"/><rect class="d1" x="572" y="96" width="12" height="12" rx="3"/><rect class="d1" x="572" y="110" width="12" height="12" rx="3"/><rect class="d1" x="572" y="124" width="12" height="12" rx="3"/><rect class="d1" x="572" y="138" width="12" height="12" rx="3"/><rect class="d2" x="572" y="152" width="12" height="12" rx="3"/><rect class="d3" x="572" y="166" width="12" height="12" rx="3"/><rect class="d2" x="572" y="180" width="12" height="12" rx="3"/><rect class="d1" x="586" y="96" width="12" height="12" rx="3"/><rect class="d1" x="586" y="110" width="12" height="12" rx="3"/><rect class="d1" x="586" y="124" width="12" height="12" rx="3"/><rect class="d1" x="586" y="138" width="12" height="12" rx="3"/><rect class="d1" x="586" y="152" width="12" height="12" rx="3"/><rect class="d2" x="586" y="166" width="12" height="12" rx="3"/><rect class="d1" x="586" y="180" width="12" height="12" rx="3"/><rect class="d1" x="600" y="96" width="12" height="12" rx="3"/><rect class="d0" x="600" y="110" width="12" height="12" rx="3"/><rect class="d0" x="600" y="124" width="12" height="12" rx="3"/><rect class="d0" x="600" y="138" width="12" height="12" rx="3"/><rect class="d1" x="600" y="152" width="12" height="12" rx="3"/><rect class="d1" x="600" y="166" width="12" height="12" rx="3"/><rect class="d1" x="600" y="180" width="12" height="12" rx="3"/><rect class="d2" x="614" y="96" width="12" height="12" rx="3"/><rect class="d0" x="614" y="110" width="12" height="12" rx="3"/><rect class="d1" x="614" y="124" width="12" height="12" rx="3"/><rect class="d1" x="614" y="138" width="12" height="12" rx="3"/><rect class="d1" x="614" y="152" width="12" height="12" rx="3"/><rect class="d2" x="614" y="166" width="12" height="12" rx="3"/><rect class="d1" x="614" y="180" width="12" height="12" rx="3"/><rect class="d1" x="628" y="96" width="12" height="12" rx="3"/><rect class="d2" x="628" y="110" width="12" height="12" rx="3"/><rect class="d1" x="628" y="124" width="12" height="12" rx="3"/><rect class="d0" x="628" y="138" width="12" height="12" rx="3"/><rect class="d1" x="628" y="152" width="12" height="12" rx="3"/><rect class="d1" x="628" y="166" width="12" height="12" rx="3"/><rect class="d0" x="628" y="180" width="12" height="12" rx="3"/><rect class="d1" x="642" y="96" width="12" height="12" rx="3"/><rect class="d1" x="642" y="110" width="12" height="12" rx="3"/><rect class="d1" x="642" y="124" width="12" height="12" rx="3"/><rect class="d2" x="642" y="138" width="12" height="12" rx="3"/><rect class="d2" x="642" y="152" width="12" height="12" rx="3"/><rect class="d2" x="642" y="166" width="12" height="12" rx="3"/><rect class="d1" x="642" y="180" width="12" height="12" rx="3"/><rect class="d1" x="656" y="96" width="12" height="12" rx="3"/><rect class="d2" x="656" y="110" width="12" height="12" rx="3"/><rect class="d1" x="656" y="124" width="12" height="12" rx="3"/><rect class="d1" x="656" y="138" width="12" height="12" rx="3"/><rect class="d1" x="656" y="152" width="12" height="12" rx="3"/><rect class="d2" x="656" y="166" width="12" height="12" rx="3"/><rect class="d1" x="656" y="180" width="12" height="12" rx="3"/><rect class="d2" x="670" y="96" width="12" height="12" rx="3"/><rect class="d1" x="670" y="110" width="12" height="12" rx="3"/><rect class="d2" x="670" y="124" width="12" height="12" rx="3"/><rect class="d2" x="670" y="138" width="12" height="12" rx="3"/><rect class="d2" x="670" y="152" width="12" height="12" rx="3"/><rect class="d1" x="670" y="166" width="12" height="12" rx="3"/><rect class="d0" x="670" y="180" width="12" height="12" rx="3"/><rect class="d1" x="684" y="96" width="12" height="12" rx="3"/><rect class="d1" x="684" y="110" width="12" height="12" rx="3"/><rect class="d0" x="684" y="124" width="12" height="12" rx="3"/><rect class="d1" x="684" y="138" width="12" height="12" rx="3"/><rect class="d1" x="684" y="152" width="12" height="12" rx="3"/><rect class="d3" x="684" y="166" width="12" height="12" rx="3"/><rect class="d2" x="684" y="180" width="12" height="12" rx="3"/><rect class="d4" x="698" y="96" width="12" height="12" rx="3"/><rect class="d2" x="698" y="110" width="12" height="12" rx="3"/><rect class="d1" x="698" y="124" width="12" height="12" rx="3"/><rect class="d1" x="698" y="138" width="12" height="12" rx="3"/><rect class="d1" x="698" y="152" width="12" height="12" rx="3"/><rect class="d1" x="698" y="166" width="12" height="12" rx="3"/><rect class="d0" x="698" y="180" width="12" height="12" rx="3"/><rect class="d1" x="712" y="96" width="12" height="12" rx="3"/><rect class="d1" x="712" y="110" width="12" height="12" rx="3"/><rect class="d1" x="712" y="124" width="12" height="12" rx="3"/><rect class="d2" x="712" y="138" width="12" height="12" rx="3"/><rect class="d1" x="712" y="152" width="12" height="12" rx="3"/><rect class="d1" x="712" y="166" width="12" height="12" rx="3"/><rect class="d1" x="712" y="180" width="12" height="12" rx="3"/><rect class="d1" x="726" y="96" width="12" height="12" rx="3"/><rect class="d1" x="726" y="110" width="12" height="12" rx="3"/><rect class="d1" x="726" y="124" width="12" height="12" rx="3"/><rect class="d1" x="726" y="138" width="12" height="12" rx="3"/><rect class="d0" x="726" y="152" width="12" height="12" rx="3"/><rect class="d1" x="726" y="166" width="12" height="12" rx="3"/><rect class="d1" x="726" y="180" width="12" height="12" rx="3"/><rect class="d1" x="740" y="96" width="12" height="12" rx="3"/><rect class="d4" x="740" y="110" width="12" height="12" rx="3"/><rect class="d2" x="740" y="124" width="12" height="12" rx="3"/><rect class="d2" x="740" y="138" width="12" height="12" rx="3"/><rect class="d2" x="740" y="152" width="12" height="12" rx="3"/><rect class="d2" x="740" y="166" width="12" height="12" rx="3"/><rect class="d2" x="740" y="180" width="12" height="12" rx="3"/><rect class="d1" x="754" y="96" width="12" height="12" rx="3"/><rect class="d1" x="754" y="110" width="12" height="12" rx="3"/><rect class="d1" x="754" y="124" width="12" height="12" rx="3"/><rect class="d1" x="754" y="138" width="12" height="12" rx="3"/><rect class="d0" x="754" y="152" width="12" height="12" rx="3"/><rect class="d0" x="754" y="166" width="12" height="12" rx="3"/><rect class="d0" x="754" y="180" width="12" height="12" rx="3"/><rect class="d0" x="768" y="96" width="12" height="12" rx="3"/><rect class="d0" x="768" y="110" width="12" height="12" rx="3"/><rect class="d0" x="768" y="124" width="12" height="12" rx="3"/><rect class="d1" x="768" y="138" width="12" height="12" rx="3"/><rect class="d0" x="768" y="152" width="12" height="12" rx="3"/><rect class="d1" x="768" y="166" width="12" height="12" rx="3"/></g>
<text x="40" y="218">53 weeks</text>
<text x="680" y="218" text-anchor="end">less</text>
<rect class="d0" x="702" y="208" width="12" height="12" rx="3"/><rect class="d1" x="718" y="208" width="12" height="12" rx="3"/><rect class="d2" x="734" y="208" width="12" height="12" rx="3"/><rect class="d3" x="750" y="208" width="12" height="12" rx="3"/><rect class="d4" x="766" y="208" width="12" height="12" rx="3"/>
<text x="790" y="218">more</text></svg>